<svg width="111" height="111" viewBox="0 0 111 111" fill="none" xmlns="http://www.w3.org/2000/svg">
<circle cx="55.5" cy="55.5" r="55.5" fill="#721B65"/>
<rect x="31.5" y="31.5" width="49" height="49" rx="6" fill="url(#paint0_radial_23_84)"/>
<rect x="31.5" y="31.5" width="49" height="49" rx="6" fill="url(#paint1_radial_23_84)"/>
<rect x="31.5" y="31.5" width="49" height="49" rx="6" fill="url(#paint2_radial_23_84)"/>
<path d="M68.25 46.375C68.25 47.8247 67.0747 49 65.625 49C64.1753 49 63 47.8247 63 46.375C63 44.9253 64.1753 43.75 65.625 43.75C67.0747 43.75 68.25 44.9253 68.25 46.375Z" fill="white"/>
<path fill-rule="evenodd" clip-rule="evenodd" d="M56 64.75C60.8325 64.75 64.75 60.8325 64.75 56C64.75 51.1675 60.8325 47.25 56 47.25C51.1675 47.25 47.25 51.1675 47.25 56C47.25 60.8325 51.1675 64.75 56 64.75ZM56 61.25C58.8995 61.25 61.25 58.8995 61.25 56C61.25 53.1005 58.8995 50.75 56 50.75C53.1005 50.75 50.75 53.1005 50.75 56C50.75 58.8995 53.1005 61.25 56 61.25Z" fill="white"/>
<path fill-rule="evenodd" clip-rule="evenodd" d="M38.5 55.3C38.5 49.4194 38.5 46.4792 39.6444 44.2331C40.6511 42.2574 42.2574 40.6511 44.2331 39.6444C46.4792 38.5 49.4194 38.5 55.3 38.5H56.7C62.5806 38.5 65.5208 38.5 67.7669 39.6444C69.7426 40.6511 71.3489 42.2574 72.3556 44.2331C73.5 46.4792 73.5 49.4194 73.5 55.3V56.7C73.5 62.5806 73.5 65.5208 72.3556 67.7669C71.3489 69.7426 69.7426 71.3489 67.7669 72.3556C65.5208 73.5 62.5806 73.5 56.7 73.5H55.3C49.4194 73.5 46.4792 73.5 44.2331 72.3556C42.2574 71.3489 40.6511 69.7426 39.6444 67.7669C38.5 65.5208 38.5 62.5806 38.5 56.7V55.3ZM55.3 42H56.7C59.698 42 61.7361 42.0027 63.3114 42.1314C64.8458 42.2568 65.6305 42.484 66.1779 42.763C67.4951 43.4341 68.5659 44.5049 69.237 45.8221C69.516 46.3695 69.7432 47.1542 69.8686 48.6886C69.9973 50.2639 70 52.302 70 55.3V56.7C70 59.698 69.9973 61.7361 69.8686 63.3114C69.7432 64.8458 69.516 65.6305 69.237 66.1779C68.5659 67.4951 67.4951 68.5659 66.1779 69.237C65.6305 69.516 64.8458 69.7432 63.3114 69.8686C61.7361 69.9973 59.698 70 56.7 70H55.3C52.302 70 50.2639 69.9973 48.6886 69.8686C47.1542 69.7432 46.3695 69.516 45.8221 69.237C44.5049 68.5659 43.4341 67.4951 42.763 66.1779C42.484 65.6305 42.2568 64.8458 42.1314 63.3114C42.0027 61.7361 42 59.698 42 56.7V55.3C42 52.302 42.0027 50.2639 42.1314 48.6886C42.2568 47.1542 42.484 46.3695 42.763 45.8221C43.4341 44.5049 44.5049 43.4341 45.8221 42.763C46.3695 42.484 47.1542 42.2568 48.6886 42.1314C50.2639 42.0027 52.302 42 55.3 42Z" fill="white"/>
<defs>
<radialGradient id="paint0_radial_23_84" cx="0" cy="0" r="1" gradientUnits="userSpaceOnUse" gradientTransform="translate(49 68.25) rotate(-55.3758) scale(44.6593)">
<stop stop-color="#B13589"/>
<stop offset="0.79309" stop-color="#C62F94"/>
<stop offset="1" stop-color="#8A3AC8"/>
</radialGradient>
<radialGradient id="paint1_radial_23_84" cx="0" cy="0" r="1" gradientUnits="userSpaceOnUse" gradientTransform="translate(47.25 82.25) rotate(-65.1363) scale(39.5399)">
<stop stop-color="#E0E8B7"/>
<stop offset="0.444662" stop-color="#FB8A2E"/>
<stop offset="0.71474" stop-color="#E2425C"/>
<stop offset="1" stop-color="#E2425C" stop-opacity="0"/>
</radialGradient>
<radialGradient id="paint2_radial_23_84" cx="0" cy="0" r="1" gradientUnits="userSpaceOnUse" gradientTransform="translate(28.875 33.25) rotate(-8.1301) scale(68.059 14.5571)">
<stop offset="0.156701" stop-color="#406ADC"/>
<stop offset="0.467799" stop-color="#6A45BE"/>
<stop offset="1" stop-color="#6A45BE" stop-opacity="0"/>
</radialGradient>
</defs>
</svg>
