<svg width="111" height="111" viewBox="0 0 111 111" fill="none" xmlns="http://www.w3.org/2000/svg">
<circle cx="55.5" cy="55.5" r="55.5" fill="#721B65"/>
<path d="M42.7889 62.637C43.0624 60.3727 43.9911 59.1049 45.7411 57.8053C48.2451 56.0452 51.373 57.0408 51.373 57.0408V51.1343C52.1334 51.1148 52.8941 51.1599 53.6462 51.269V58.8701C53.6462 58.8701 50.5193 57.8745 48.0153 59.6355C46.2662 60.9342 45.3357 62.2029 45.0631 64.4672C45.0546 65.6968 45.2853 67.304 46.3479 68.6937C46.0852 68.559 45.8174 68.4055 45.5446 68.2332C43.2039 66.6615 42.7775 64.3034 42.7889 62.637ZM66.5613 40.2131C64.8388 38.3256 64.1874 36.4198 63.9519 35.0811H66.1188C66.1188 35.0811 65.6867 38.5913 68.8355 42.0433L68.8792 42.0897C68.0305 41.5559 67.2523 40.9258 66.5613 40.2131ZM76.9998 45.5645V53.0127C76.9998 53.0127 74.2347 52.9044 72.1884 52.3838C69.3312 51.6558 67.4947 50.5391 67.4947 50.5391C67.4947 50.5391 66.2261 49.7427 66.1235 49.6872V65.0679C66.1235 65.9243 65.889 68.063 65.174 69.8468C64.2405 72.1803 62.8001 73.712 62.5351 74.0251C62.5351 74.0251 60.7832 76.0955 57.6923 77.4898C54.9063 78.7476 52.4602 78.7157 51.7291 78.7476C51.7291 78.7476 47.5007 78.915 43.6958 76.4423C42.873 75.8973 42.1049 75.28 41.4016 74.5984L41.4206 74.6121C45.2265 77.0848 49.4539 76.9174 49.4539 76.9174C50.186 76.8855 52.6321 76.9174 55.4172 75.6596C58.5052 74.2653 60.26 72.1948 60.26 72.1948C60.522 71.8818 61.9692 70.3501 62.8988 68.0157C63.6119 66.2328 63.8484 64.0932 63.8484 63.2368V47.8579C63.9509 47.9143 65.2186 48.7107 65.2186 48.7107C65.2186 48.7107 67.056 49.8283 69.9132 50.5555C71.9605 51.076 74.7247 51.1843 74.7247 51.1843V45.3479C75.6704 45.5599 76.4766 45.6173 76.9998 45.5645Z" fill="#EE1D52"/>
<path d="M74.7258 45.3479V51.1825C74.7258 51.1825 71.9616 51.0742 69.9143 50.5536C67.0571 49.8256 65.2197 48.7089 65.2197 48.7089C65.2197 48.7089 63.952 47.9125 63.8495 47.8561V63.2386C63.8495 64.095 63.6149 66.2346 62.8999 68.0175C61.9665 70.3519 60.526 71.8836 60.261 72.1967C60.261 72.1967 58.5082 74.2671 55.4183 75.6614C52.6332 76.9192 50.1871 76.8873 49.455 76.9192C49.455 76.9192 45.2275 77.0866 41.4217 74.6139L41.4027 74.6002C41.0009 74.2112 40.6226 73.8003 40.2699 73.3698C39.0554 71.8891 38.3109 70.138 38.1238 69.6384C38.1235 69.6363 38.1235 69.6341 38.1238 69.632C37.8228 68.7638 37.1904 66.6787 37.2768 64.6592C37.4297 61.0962 38.6831 58.9092 39.0145 58.3614C39.8922 56.8673 41.0338 55.5306 42.3883 54.4106C43.5837 53.4442 44.9386 52.6753 46.3974 52.1354C47.9745 51.5015 49.6632 51.1617 51.3731 51.1343V57.0408C51.3731 57.0408 48.2453 56.0488 45.7422 57.8053C43.9922 59.1049 43.0635 60.3727 42.79 62.637C42.7786 64.3034 43.205 66.6615 45.5437 68.2341C45.8166 68.407 46.0844 68.5605 46.3471 68.6946C46.7557 69.2257 47.253 69.6885 47.8189 70.0643C50.1036 71.5105 52.0179 71.6115 54.4659 70.6723C56.0982 70.0443 57.3269 68.6291 57.8966 67.061C58.2546 66.0817 58.2499 65.0961 58.2499 64.0768V35.0811H63.9473C64.1828 36.4198 64.8342 38.3256 66.5567 40.2131C67.2476 40.9258 68.0259 41.5559 68.8746 42.0897C69.1252 42.3491 70.4072 43.6314 72.0527 44.4187C72.9036 44.8256 73.8005 45.1374 74.7258 45.3479Z" fill="black"/>
<path d="M35.8562 67.8247V67.8293L35.9976 68.2124C35.9813 68.1678 35.9288 68.0322 35.8562 67.8247Z" fill="#69C9D0"/>
<path d="M46.3974 52.1355C44.9386 52.6754 43.5837 53.4443 42.3884 54.4107C41.0334 55.5332 39.8921 56.8728 39.0155 58.3697C38.6841 58.9157 37.4307 61.1045 37.2778 64.6676C37.1914 66.6871 37.8238 68.7721 38.1248 69.6403C38.1245 69.6424 38.1245 69.6446 38.1248 69.6467C38.3147 70.1418 39.0563 71.8928 40.2708 73.3781C40.6236 73.8086 41.0019 74.2195 41.4037 74.6086C40.1162 73.7552 38.9681 72.7234 37.9966 71.547C36.7926 70.079 36.05 68.3462 35.8563 67.8347C35.8561 67.8311 35.8561 67.8274 35.8563 67.8238V67.8174C35.5544 66.9501 34.92 64.8641 35.0084 62.8419C35.1612 59.2789 36.4147 57.0919 36.7461 56.544C37.6224 55.047 38.7637 53.7074 40.1189 52.5851C41.314 51.6183 42.6689 50.8494 44.128 50.3098C45.038 49.9479 45.9861 49.681 46.9558 49.5135C48.4171 49.269 49.9096 49.2478 51.3779 49.4507V51.1344C49.6664 51.1612 47.976 51.501 46.3974 52.1355Z" fill="#69C9D0"/>
<path d="M63.9519 35.0811H58.2545V64.0777C58.2545 65.0971 58.2545 66.08 57.9013 67.062C57.3258 68.6291 56.1018 70.0443 54.4705 70.6723C52.0216 71.6152 50.1072 71.5105 47.8235 70.0644C47.2566 69.6903 46.758 69.229 46.3479 68.6992C48.2936 69.694 50.0351 69.6767 52.1925 68.8467C53.8229 68.2187 55.0488 66.8035 55.6223 65.2354C55.9812 64.2561 55.9765 63.2705 55.9765 62.2521V33.25H63.8436C63.8436 33.25 63.7553 33.9708 63.9519 35.0811ZM74.7256 43.7343V45.3479C73.802 45.1371 72.9068 44.8253 72.0574 44.4187C70.4118 43.6315 69.1299 42.3492 68.8792 42.0898C69.1701 42.2728 69.4719 42.4394 69.7832 42.5885C71.7839 43.5459 73.7542 43.8317 74.7256 43.7343Z" fill="#69C9D0"/>
</svg>
